<svg xmlns="http://www.w3.org/2000/svg" width="190.948" height="172.953" viewBox="0 0 190.948 172.953">
  <g id="Group_19" data-name="Group 19" transform="translate(125.253 327.256)">
    <g id="Group_11" data-name="Group 11" transform="translate(-408.253 -282.256)">
      <g id="Path_1" data-name="Path 1" transform="translate(283 -45)" fill="none">
        <path d="M86.477,0A86.477,86.477,0,1,1,0,86.477,86.477,86.477,0,0,1,86.477,0Z" stroke="none"/>
        <path d="M 86.47671508789062 29.99998474121094 C 55.33535003662109 29.99998474121094 29.99998474121094 55.33535003662109 29.99998474121094 86.47671508789062 C 29.99998474121094 117.6180877685547 55.33535003662109 142.9534454345703 86.47671508789062 142.9534454345703 C 117.6180877685547 142.9534454345703 142.9534454345703 117.6180877685547 142.9534454345703 86.47671508789062 C 142.9534454345703 55.33535003662109 117.6180877685547 29.99998474121094 86.47671508789062 29.99998474121094 M 86.47671508789062 -1.52587890625e-05 C 134.2365112304688 -1.52587890625e-05 172.9534454345703 38.7169189453125 172.9534454345703 86.47671508789062 C 172.9534454345703 134.2365112304688 134.2365112304688 172.9534454345703 86.47671508789062 172.9534454345703 C 38.7169189453125 172.9534454345703 -1.52587890625e-05 134.2365112304688 -1.52587890625e-05 86.47671508789062 C -1.52587890625e-05 38.7169189453125 38.7169189453125 -1.52587890625e-05 86.47671508789062 -1.52587890625e-05 Z" stroke="none" fill="#dd003f"/>
      </g>
      <path id="Path_2" data-name="Path 2" d="M68.8,19.662a13,13,0,0,1,22.554,0l57.638,100.5a13,13,0,0,1-11.277,19.468H22.442a13,13,0,0,1-11.277-19.468Z" transform="translate(334.322 120.469) rotate(-90)" fill="#dd003f"/>
    </g>
  </g>
</svg>
